<?xml version="1.0" encoding="UTF-8"?>
<svg id="Layer_1" xmlns="http://www.w3.org/2000/svg" version="1.1" viewBox="0 0 1943.78 854.33">
  <!-- Generator: Adobe Illustrator 30.5.1, SVG Export Plug-In . SVG Version: 2.1.4 Build 3)  -->
  <path d="M506.91,845.59c-112.94,23.63-229.36-1.4-323.36-65.72C4.6,657.43-53.52,427.35,53.95,236.2c-6.95,65.17,23.35,129.08,70.57,174.42,28.3,27.17,59.62,49.49,95.28,66.17l100.73,47.13c39.14,18.31,74.54,41.41,100.73,75.63,15.76,20.59,25.43,44.38,23.45,69.91s-17.19,43.26-40.68,49.3c-19.1,4.91-38.48,5.13-58.66.72-82.63-18.05-155.52-65.2-207.62-131.43-12.48-16.59-20.7-32.52-32.36-51.04,21.32,61.99,60.06,117.48,112.26,158.33,61.83,48.39,143.71,78.82,222.4,65.35,38.9-6.66,74.69-25.31,97.73-57.54,17.89-25.02,23.84-56.32,14.8-85.45-13.97-44.99-62.83-73.05-102.87-92.69-37.51-18.39-74.68-33.81-113.42-49.68-71.43-29.26-140.89-57.28-192.33-116.35-18.08-20.76-30.32-44.86-36.19-71.8-16.93-77.74,5.79-138.61,62.33-191.9C233.64,35.42,323.32,5.6,409.62.64c59.7-3.43,119,7.08,174.47,29.37,94.92,38.15,171.2,107.83,218.14,198.54,65.82,127.19,62.38,268.01-5.19,393.82-2.01-65.59-19.96-129.33-64.39-176.55-41.78-45.75-93.1-72.19-149-96.56-55.8-24.33-113.64-46.33-152.1-95.52-13.7-17.53-23.42-36.28-26.59-57.89-3.4-23.18,6.77-44.34,27.71-55.02,14.62-7.46,31.86-10.15,49.36-8.42,55.29,5.47,106.02,27.57,151.27,58.99s79.68,71.06,104.58,121.94c-6.37-27.3-19.5-51.4-35.43-75.77-43.1-65.93-108.71-115.38-184.5-137.36-74.11-21.5-166.98-10.46-210.25,59.18-25.99,41.83-14.08,94.51,24.43,124.34,51.01,39.5,133.85,71.4,195.14,94.84,54.98,21.03,102.98,44.29,148.21,82.07,66.09,55.21,91.95,144.01,57.06,224.43-37.66,86.81-134.29,141.42-225.65,160.53Z"/>
  <path d="M1609.79,691.36c-11.44,13.7-30.56,17.54-47.01,17.58l-92.31.26-.1-159.19,92.31.16c14.72.02,28.18,6.49,38.77,15.28,15.71,18.84,12.7,44.75-7.34,60.38,24.73,11.73,33.46,44.22,15.67,65.53ZM1559.51,613.63c10.81-.15,15.11-11.76,14.05-19.12-1.11-7.78-7.81-14.4-17.07-14.44l-48.37-.18.23,34.47,51.16-.73ZM1564.17,678.25c11.4-.1,17.16-9.76,16.28-18.82-2.47-25.51-51.1-13.65-72.34-16.07l.22,35.38,55.84-.49Z"/>
  <path d="M1584.6,204.19c2.06,34.53-16.26,63.56-47.55,75.58-9.7,3.73-20.96,7.89-31.71,7.93l-83.03.28-.02-160.11h76.99c22.69,0,44.06,7.68,61.14,21.85,15.75,13.84,22.86,32.51,24.18,54.47ZM1544.82,194.95c-9.43-39.67-55.13-36.82-84.26-35.12l.1,95.51c14.72.47,28.35,1.1,42.3-.3,29.93-3,49.05-29.9,41.87-60.09Z"/>
  <path d="M1401.03,701.23c-47.58,24.42-115.75,5.25-130.22-48.53-11.7-43.5,10.99-85.8,53.75-100.33,23.52-7.99,49.44-7.09,72.25,2.88,30.15,13.17,47.23,41.65,47.14,74.27-.09,30.37-14.66,57.2-42.92,71.71ZM1358,678.69c16.84-.91,32.61-8.38,40.75-22.93,15.33-27.41,3.65-63.65-26.07-73.47-17.52-5.79-36.24-2.05-48.92,8.71-13.18,11.18-19.24,28.36-16.72,46.22,3.62,25.68,24.17,42.93,50.96,41.48Z"/>
  <polygon points="1713.4 432.91 1638.97 433.48 1639.03 468.18 1726.38 468.26 1726.68 499.03 1601.18 499.18 1601.07 339.78 1722.86 339.75 1723.66 370.81 1638.85 371.17 1638.98 403.07 1713.28 403.29 1713.4 432.91"/>
  <path d="M1389.46,466.39l-75.38-.26-13.3,33.02-40.9-.32,72.94-158.83h39.28s73.68,158.46,73.68,158.46l-42.05.78-14.27-32.85ZM1376.73,436.06l-25.05-56.43-24.21,56.47,49.27-.04Z"/>
  <path d="M1227.8,221.21l-74.71.17c-.75,11.35-.67,21.31.14,34.83l88.46.59.31,31.18h-126.84s-.02-160.12-.02-160.12l123.92-.06.19,31.41-86.28.15-.29,31.6,75.08.46.03,29.78Z"/>
  <polygon points="1382.23 221.06 1306.48 221.32 1306.19 256.32 1395.67 256.67 1395.64 287.95 1268.71 288 1268.09 127.77 1391.37 127.8 1391.59 159.24 1306.47 159.34 1306.16 191.09 1381.6 191.18 1382.23 221.06"/>
  <path d="M1753.83,676.37l-75.53-.54-14.54,33.51-39.97-.53,72.19-158.6,39.54.22,72.5,158.43-40.36,1.19-13.82-33.68ZM1740.28,646.33l-25.08-56.64-24.47,56.44,49.56.2Z"/>
  <path d="M1073.35,672.37l.82-44.66,35.54-.12-.21,63.51c-31.16,21.93-71.61,27.15-106.6,12.2-31.74-13.56-48.74-43.78-47.31-77.9,1.33-31.87,21.11-58.58,50.45-70.94,32.89-13.86,78.91-9.18,106.41,19.81l-23.93,24.48c-12.17-12.05-24.42-18.45-40.54-19.18-22.03-1-42.36,10.74-50.21,29.92-8.45,20.66-3.56,45.74,14.78,58.98,17.69,12.78,39.75,13.35,60.81,3.89Z"/>
  <path d="M1089.13,460.95c-8.6,35.34-43.68,42.15-75.51,40.42-22.32-1.21-43.14-6.62-60.06-20.73l13.67-28.7c22.73,16.42,49.12,22.99,75.12,14.81,4.52-1.42,9.45-7.4,9.78-11.06.4-4.45-4-12.11-9.23-13.6l-50.24-14.35c-13.58-3.88-26.38-12.13-32.01-25.34-9.86-23.1,2.12-48.5,25.74-58.07,31.22-12.65,67.5-9.7,96.57,7.57l-13.08,28.48c-19.17-14.58-72.07-18.96-74.8,2.7-2.76,21.94,41.77,16.05,73.92,33.03,16.77,8.86,24.55,26.67,20.13,44.84Z"/>
  <path d="M1056.06,285.71c-34.45,11.2-70.03,4.87-101.31-13.35l12.89-29.33c22.42,14.38,47.41,20.39,72.68,13.81,5.38-1.4,10.58-6.55,11.38-10.93,5.81-31.85-102.83-12.71-93.89-75.69,7.44-52.39,88.95-52.8,125.76-30.71l-12.77,29.9c-20.6-11.73-42.97-16.57-64.9-8.69-6.84,2.46-14.24,12.16-8.21,18.65,19.45,20.96,89.26,7.44,91.99,58.7,1.18,22.04-11.04,40.3-33.61,47.64Z"/>
  <path d="M1152.21,390.35c-16.13,23.06-9.39,54.36,11.8,69.6,21.69,15.61,51.6,11.8,70.28-10.45l25.53,21.7c-33.05,42.05-102.24,39.8-136.93-1.02-16.73-19.69-23.12-45.34-16.01-71.82,5.64-20.99,20.61-41.61,43.67-52.22,34.93-16.07,83.31-12,109.38,20.04l-25.63,22.72c-21.55-25.8-62.41-26.69-82.09,1.45Z"/>
  <polygon points="1580.47 468.23 1580.93 499.05 1459.88 499.18 1459.79 340.09 1498.01 339.79 1498.41 467.94 1580.47 468.23"/>
  <polygon points="1943.78 677.52 1943.71 709.16 1824.3 709.07 1824.14 550.7 1862.78 550.56 1863 677.51 1943.78 677.52"/>
  <polygon points="1259.01 677.52 1259.01 709.11 1140.12 709.04 1139.96 550.35 1178.66 550.39 1178.75 677.46 1259.01 677.52"/>
</svg>